<?xml version="1.0" standalone="no"?>
<!DOCTYPE svg PUBLIC "-//W3C//DTD SVG 20010904//EN"
 "http://www.w3.org/TR/2001/REC-SVG-20010904/DTD/svg10.dtd">
<svg version="1.0" xmlns="http://www.w3.org/2000/svg"
 width="500.000000pt" height="500.000000pt" viewBox="0 0 500.000000 500.000000"
 preserveAspectRatio="xMidYMid meet">

<g transform="translate(0.000000,500.000000) scale(0.100000,-0.100000)"
fill="#000000" stroke="none">
<path d="M3523 4345 c-8 -8 -15 -54 -17 -112 -3 -54 -5 -101 -5 -105 -1 -5
-451 -8 -1001 -8 l-1000 0 0 58 c0 40 -3 53 -10 42 -8 -12 -10 -10 -11 10 -1
23 -2 23 -9 -5 -3 -16 -8 -99 -9 -182 -2 -143 -1 -153 17 -153 23 0 57 -37 66
-71 14 -62 -74 -127 -141 -103 -61 22 -85 104 -43 149 13 14 29 25 37 25 10 0
13 37 11 183 -1 100 -3 161 -5 134 -2 -26 -8 -45 -13 -42 -5 3 -6 13 -3 22 4
11 3 14 -5 9 -7 -4 -12 -23 -12 -42 l0 -34 -64 0 c-59 0 -235 -25 -245 -35
-12 -13 11 -13 69 1 37 8 98 14 145 12 l80 -3 3 -83 c3 -79 1 -85 -22 -103
-40 -31 -51 -82 -31 -134 40 -107 205 -120 265 -22 33 53 24 120 -20 157 -13
11 -20 36 -25 86 -6 60 -4 72 11 85 14 12 156 14 970 12 524 -1 958 -4 964 -8
5 -3 10 -39 10 -79 0 -64 -3 -75 -24 -95 -56 -53 -58 -127 -5 -180 115 -115
317 7 244 148 -8 16 -21 31 -30 34 -12 5 -15 25 -15 96 l0 90 33 6 c34 7 180
-9 235 -24 24 -7 32 -7 32 4 0 18 -35 24 -177 31 -67 4 -126 10 -132 13 -5 4
-11 42 -12 86 -1 48 -7 84 -15 92 -10 11 -13 -26 -16 -195 -3 -214 -2 -236 13
-226 5 3 20 -6 34 -20 37 -37 33 -80 -9 -122 -38 -38 -77 -44 -126 -19 -35 18
-50 43 -50 85 0 33 38 80 65 80 13 0 15 30 15 235 0 129 -1 235 -2 235 -2 -1
-9 -7 -15 -15z"/>
<path d="M3982 4079 c2 -7 22 -19 44 -26 41 -14 109 -48 182 -90 32 -19 42
-22 42 -10 0 8 -46 37 -112 70 -128 63 -163 76 -156 56z"/>
<path d="M1263 4073 l47 -4 0 -43 0 -44 -67 -7 c-186 -20 -317 -80 -439 -201
-68 -67 -90 -96 -129 -176 -75 -155 -75 -160 -75 -993 0 -396 3 -730 6 -742 4
-13 10 -23 15 -23 4 0 9 357 11 793 l3 792 28 82 c34 101 108 215 185 283 64
57 210 132 287 149 82 17 175 24 175 13 0 -5 -30 -13 -67 -17 -173 -17 -289
-71 -405 -186 -62 -60 -86 -94 -118 -161 -71 -148 -71 -150 -68 -1045 3 -711
5 -791 19 -806 12 -11 47 -18 130 -24 l114 -7 -104 -8 c-57 -4 -111 -10 -120
-14 -9 -4 -18 -7 -21 -6 -12 2 -15 -71 -15 -318 1 -293 10 -352 74 -484 89
-183 243 -307 434 -351 92 -21 2555 -21 2666 1 41 7 76 12 78 10 2 -2 -27 -11
-64 -20 -61 -16 -179 -17 -1369 -17 l-1302 0 -75 25 c-197 66 -349 221 -417
424 -41 122 -49 198 -50 442 -1 187 -2 203 -16 185 -13 -17 -15 -56 -11 -275
4 -242 5 -260 31 -345 36 -119 94 -219 177 -302 81 -82 150 -125 266 -167 l88
-31 639 -3 c579 -2 641 -1 664 14 27 18 104 14 110 -5 4 -12 1127 -16 1170 -5
16 5 21 12 17 23 -5 13 -4 14 6 4 19 -19 88 -16 150 6 227 78 379 235 460 476
l24 70 3 760 c2 580 0 766 -9 789 -11 26 -14 27 -20 10 -4 -10 -8 -339 -8
-730 -1 -774 -3 -804 -58 -944 -35 -88 -109 -195 -174 -252 -84 -74 -76 -57
15 35 65 65 91 100 124 168 75 153 75 151 80 809 2 322 1 676 -3 788 l-7 202
-75 0 c-47 0 -72 4 -68 10 3 6 37 10 75 10 l68 0 7 188 c10 252 1 540 -20 617
-44 161 -159 302 -306 374 -82 40 -176 66 -271 73 -26 3 -51 8 -55 12 -15 17
159 -5 232 -28 106 -34 192 -85 261 -158 75 -78 103 -122 140 -218 l28 -75 6
-357 c3 -196 8 -359 12 -363 3 -4 12 3 18 15 8 15 10 114 8 348 -4 309 -5 331
-27 397 -44 131 -118 237 -222 318 -118 90 -229 132 -381 144 l-78 6 0 43 0
43 68 4 67 3 -82 2 -83 2 0 -63 c0 -52 4 -67 21 -83 36 -33 52 -74 47 -124
-12 -118 -139 -183 -253 -131 -106 48 -135 175 -56 245 17 16 21 30 21 83 l0
63 -647 -2 -648 -3 620 -5 c685 -6 621 1 617 -65 l-2 -25 -894 0 -893 0 1 43
2 42 274 5 275 5 -292 3 c-161 1 -296 1 -300 0 -4 -2 -9 -31 -10 -65 -1 -44 2
-63 12 -67 21 -8 55 -81 55 -116 0 -56 -53 -127 -113 -149 -138 -52 -284 77
-229 202 10 23 26 48 35 56 13 10 17 30 17 82 l0 69 -57 -2 c-57 -2 -57 -2
-10 -5z m2057 -133 c30 -4 -343 -7 -830 -6 -487 0 -788 3 -670 6 317 8 1436 8
1500 0z m-1647 -760 c-2 -113 -3 -211 -3 -217 0 -10 -76 -13 -345 -13 l-345 0
0 220 0 220 348 -2 347 -3 -2 -205z m775 -6 l2 -211 -76 -7 c-43 -3 -198 -6
-346 -6 l-268 0 0 220 0 220 343 -2 342 -3 3 -211z m655 206 l117 0 -2 -72 -2
-73 -3 66 -4 66 -262 -4 c-270 -4 -366 -10 -334 -22 16 -6 16 -7 -3 -21 -11
-8 -21 -26 -22 -40 0 -14 -4 -2 -8 25 -5 34 -8 -7 -10 -125 -5 -219 -4 -218
-13 -226 -4 -4 -7 93 -7 216 l0 223 218 -6 c119 -4 270 -7 335 -7z m905 -180
l-2 -185 -3 173 -3 172 -330 0 -330 0 -1 -187 c-1 -104 -1 -194 0 -200 1 -7
-3 -13 -9 -13 -6 0 -10 73 -10 216 l0 215 345 -3 345 -3 -2 -185z m-2336 -327
c2 -9 2 -112 0 -228 l-3 -213 -272 -7 c-150 -4 -303 -5 -342 -3 l-70 3 -3 233
-2 232 344 0 c312 0 345 -2 348 -17z m108 -159 c0 -93 -3 -170 -5 -173 -3 -2
-5 76 -5 174 0 98 3 176 6 172 3 -3 5 -81 4 -173z m1609 160 c2 -2 -10 -4 -27
-4 l-31 0 -4 -67 -3 -68 -2 78 -2 77 32 -5 c18 -4 34 -8 37 -11z m194 -1 c-13
-2 -33 -2 -45 0 -13 2 -3 4 22 4 25 0 35 -2 23 -4z m-441 -60 c10 -9 18 -25
18 -35 0 -11 -59 -79 -137 -159 -76 -77 -140 -148 -141 -157 -2 -9 -8 -21 -12
-26 -10 -11 -81 2 -77 14 1 4 -32 44 -73 87 -42 43 -81 86 -89 95 -16 21 -6
54 20 68 23 13 50 1 99 -45 23 -22 48 -35 75 -38 38 -5 41 -4 151 104 61 60
120 109 130 109 9 0 26 -7 36 -17z m-1471 -447 c2 -2 3 -104 1 -225 l-3 -221
-344 0 -345 0 0 225 0 225 343 0 c189 0 346 -2 348 -4z m777 -223 l2 -223
-345 0 -345 0 0 218 c0 120 3 222 7 226 4 4 158 6 343 4 l335 -3 3 -222z
m1560 45 l-2 -173 -6 165 -5 165 -325 -4 c-179 -2 -326 -4 -326 -5 -1 0 -4
-94 -5 -208 -2 -115 -7 -208 -11 -208 -5 0 -8 99 -8 220 l0 220 345 0 345 0
-2 -172z m-2449 -345 c-9 -2 -137 -7 -285 -11 l-269 -7 -5 -210 -5 -210 -7
145 c-5 80 -8 180 -8 223 l0 77 298 -1 c163 -1 290 -3 281 -6z m891 -213 l0
-219 -32 -6 c-18 -3 -172 -4 -343 -3 l-310 3 -3 223 -2 222 345 0 345 0 0
-220z m768 -2 l-1 -223 -8 154 c-4 84 -6 180 -6 212 l2 59 -317 0 -317 0 -3
-201 c-2 -110 -1 -203 1 -205 2 -2 135 -5 295 -5 181 -1 274 -5 246 -10 -25
-4 -161 -8 -302 -8 l-258 -1 0 225 0 225 335 0 335 0 -2 -222z m114 130 c-5
-168 -8 -185 -10 -45 -1 75 1 137 6 137 4 0 6 -42 4 -92z m-884 -645 l2 -223
-345 0 -345 0 0 218 c0 120 3 222 7 226 4 4 158 6 343 4 l335 -3 3 -222z m545
220 l227 -6 0 -219 c0 -120 -3 -218 -7 -218 -5 0 -10 96 -11 213 -2 116 -5
213 -7 215 -1 2 -143 0 -314 -4 l-311 -7 0 -199 0 -198 88 -1 c48 -1 186 -5
307 -8 l220 -7 -317 -2 -318 -2 0 225 0 225 108 0 c60 0 211 -3 335 -7z m334
-136 c-2 -23 -3 -1 -3 48 0 50 1 68 3 42 2 -26 2 -67 0 -90z m699 -606 c-6 -9
-91 -51 -103 -51 -9 1 88 57 100 59 5 1 6 -3 3 -8z"/>
<path d="M2378 3353 c-15 -4 -34 -46 -30 -66 1 -4 -5 -10 -13 -13 -8 -4 -15
-12 -15 -20 0 -8 -4 -14 -10 -14 -5 0 -10 -9 -10 -19 0 -11 -8 -26 -17 -33
-10 -7 -24 -25 -32 -40 -8 -16 -20 -28 -28 -28 -7 0 -23 -16 -35 -35 -14 -22
-43 -45 -76 -62 -29 -14 -49 -30 -45 -34 5 -5 92 -12 193 -16 172 -6 183 -5
177 11 -4 10 -7 98 -7 197 0 193 2 186 -52 172z"/>
<path d="M2254 2328 c-3 -5 6 -8 19 -8 16 0 26 -7 30 -20 3 -11 1 -20 -4 -20
-5 0 -9 7 -9 16 0 9 -6 14 -12 11 -7 -2 -12 -10 -10 -16 4 -18 -16 -12 -21 7
-3 9 -5 -3 -6 -27 -1 -29 -7 -49 -20 -60 -10 -9 -24 -33 -31 -53 -13 -35 -36
-55 -48 -43 -3 3 0 5 6 5 7 0 12 4 12 9 0 5 -11 8 -25 7 -25 -1 -37 -24 -44
-86 -1 -12 -3 -12 -10 -2 -6 10 -10 5 -14 -17 -4 -19 -13 -31 -22 -31 -8 0
-21 -11 -27 -25 -6 -14 -21 -26 -32 -27 -12 -1 83 -5 209 -8 127 -3 232 -5
235 -4 3 1 4 93 2 203 l-3 202 -85 -3 c-47 -2 -88 -6 -90 -10z"/>
<path d="M2160 1820 c-54 -5 -58 -7 -25 -10 22 -1 31 -5 20 -7 -12 -2 -34 -15
-50 -28 -28 -23 -29 -26 -11 -36 15 -9 16 -13 5 -20 -8 -5 -17 -3 -22 4 -5 7
-6 4 -3 -9 4 -13 -1 -27 -14 -39 -12 -11 -20 -13 -20 -6 0 8 -9 5 -24 -6 -13
-10 -22 -21 -20 -25 2 -4 0 -9 -6 -13 -5 -3 -10 -14 -10 -24 0 -11 -9 -21 -21
-24 -12 -3 -18 -10 -14 -17 8 -13 -23 -52 -36 -45 -8 5 -25 -33 -21 -47 1 -5
-6 -8 -15 -8 -15 0 -15 -2 -4 -9 11 -7 4 -11 -25 -14 -21 -2 24 -4 101 -5 77
-1 218 -5 313 -9 l172 -6 0 206 0 207 -102 -2 c-57 -1 -132 -4 -168 -8z"/>
<path d="M1792 1480 c0 -19 2 -27 5 -17 2 9 2 25 0 35 -3 9 -5 1 -5 -18z"/>
<path d="M2215 1310 c-110 -3 -189 -7 -175 -9 17 -2 20 -5 9 -8 -10 -2 -15
-11 -12 -21 2 -9 -5 -27 -16 -38 -11 -12 -25 -41 -32 -65 -13 -43 -48 -89 -68
-89 -6 0 -15 -9 -21 -20 -6 -11 -21 -20 -35 -20 -13 0 -26 -4 -30 -10 -8 -13
-33 -1 -38 18 -3 10 -5 -18 -6 -60 l-1 -78 213 -1 c116 0 248 -1 292 -1 44 0
92 0 108 1 l27 1 0 205 c0 113 -3 204 -7 203 -5 -1 -98 -5 -208 -8z"/>
<path d="M952 4048 c-30 -11 -81 -35 -114 -54 -33 -19 -64 -34 -69 -34 -5 0
-9 -10 -9 -22 l0 -21 25 23 c13 13 73 47 132 76 113 56 124 67 35 32z"/>
<path d="M1100 4055 c-276 -64 -477 -243 -573 -510 -51 -144 -52 -165 -52
-957 0 -649 3 -765 19 -747 2 2 6 351 9 774 6 874 3 842 91 1020 60 120 120
193 219 267 101 75 206 124 317 148 47 10 72 18 55 18 -16 0 -55 -6 -85 -13z"/>
<path d="M3920 4045 c47 -13 111 -34 142 -48 180 -80 342 -256 405 -439 31
-92 42 -232 43 -526 0 -185 3 -226 15 -238 13 -14 15 19 15 298 0 276 -3 322
-20 389 -70 280 -268 481 -554 563 -48 14 -98 26 -110 25 -11 0 17 -11 64 -24z"/>
<path d="M4290 3922 c0 -4 23 -32 51 -62 117 -126 198 -285 218 -433 6 -43 11
-213 11 -377 0 -262 2 -299 16 -304 14 -5 15 29 12 352 -4 339 -5 361 -27 427
-44 134 -139 285 -231 368 -43 38 -50 42 -50 29z"/>
<path d="M653 3848 c-67 -71 -129 -171 -174 -283 -55 -138 -59 -206 -58 -1025
1 -404 5 -746 9 -760 l8 -25 2 25 c1 14 6 385 9 825 7 778 8 802 29 880 31
113 101 247 178 338 36 43 64 81 61 83 -2 2 -31 -24 -64 -58z"/>
<path d="M4575 2598 c-2 -7 -6 -377 -8 -823 -3 -793 -3 -812 -24 -887 -73
-261 -234 -451 -476 -563 -163 -75 -42 -70 -1572 -70 l-1370 0 -75 23 c-191
60 -356 179 -461 334 -52 76 -81 140 -115 253 -26 88 -27 96 -32 423 -2 207
-8 332 -14 332 -6 0 -8 -126 -5 -352 4 -343 5 -356 29 -440 57 -194 175 -354
341 -466 120 -80 215 -118 347 -137 148 -23 2550 -22 2712 1 204 28 344 94
487 230 132 125 220 295 251 484 13 82 22 984 13 1378 -5 257 -12 324 -28 280z"/>
<path d="M4530 2554 c0 -14 -3 -15 -9 -6 -11 18 -21 -474 -21 -1050 0 -288 -4
-488 -11 -525 -48 -263 -254 -501 -510 -590 -149 -52 -163 -53 -779 -54 -316
0 -582 -3 -590 -7 -8 -4 -16 -15 -18 -25 -3 -17 25 -18 635 -15 l638 3 104 37
c155 56 242 109 341 208 65 66 96 107 132 175 108 209 112 258 103 1160 -3
385 -8 702 -11 704 -2 2 -4 -4 -4 -15z"/>
<path d="M474 1565 c-3 -8 -4 -146 -1 -307 3 -222 8 -308 20 -353 77 -292 267
-490 567 -591 l85 -29 658 -3 c447 -2 657 1 657 8 0 5 -13 10 -29 10 -16 0
-31 6 -35 15 -5 13 -80 15 -596 15 -643 0 -679 3 -805 58 -267 116 -437 336
-480 620 -10 64 -15 177 -15 335 0 156 -4 237 -10 237 -6 0 -13 -7 -16 -15z"/>
</g>
</svg>
